<svg width="17" height="19" viewBox="0 0 17 19" fill="none" xmlns="http://www.w3.org/2000/svg">
<path d="M8.24122 18H3.06891C1.92628 18 0.999993 17.0486 1 15.875L1.00008 3.12499C1.00009 1.95139 1.92637 1 3.069 1H12.3794C13.522 1 14.4483 1.9514 14.4483 3.12501V7.37502M4.62093 5.25001H10.8277M4.62093 8.43752H10.8277M10.8277 12.6468V15.2538C10.8277 16.542 12.1651 17.7236 13.4193 17.7236C14.6736 17.7236 16 16.542 16 15.2538V11.9607C16 11.2787 15.6183 10.5866 14.7691 10.5866C13.8607 10.5866 13.4193 11.2787 13.4193 11.9607V15.1166M4.62093 11.625H7.72432" stroke="#116278" stroke-width="2" stroke-linecap="round" stroke-linejoin="round"/>
</svg>
