<svg width="19" height="20" viewBox="0 0 19 20" fill="none" xmlns="http://www.w3.org/2000/svg">
<path fill-rule="evenodd" clip-rule="evenodd" d="M1.9 10C1.9 5.58172 5.30263 2 9.5 2C13.6974 2 17.1 5.58172 17.1 10C17.1 14.0796 14.199 17.446 10.45 17.9381V12H12.35C12.8747 12 13.3 11.5523 13.3 11C13.3 10.4477 12.8747 10 12.35 10H10.45V8C10.45 7.44772 10.8753 7 11.4 7H11.875C12.3997 7 12.825 6.55228 12.825 6C12.825 5.44772 12.3997 5 11.875 5H11.4C9.82594 5 8.55 6.34315 8.55 8V10H6.65C6.12533 10 5.7 10.4477 5.7 11C5.7 11.5523 6.12533 12 6.65 12H8.55V17.9381C4.80101 17.446 1.9 14.0796 1.9 10ZM9.5 20C14.7467 20 19 15.5228 19 10C19 4.47715 14.7467 0 9.5 0C4.25329 0 0 4.47715 0 10C0 15.5228 4.25329 20 9.5 20Z" fill="#C4E9F5"/>
</svg>
