<svg width="30" height="37" viewBox="0 0 30 37" fill="none" xmlns="http://www.w3.org/2000/svg">
<path d="M28.9436 11.9866C28.8544 11.7937 28.7434 11.6098 28.5869 11.4533L17.6668 0.533262C17.5103 0.376742 17.3265 0.265721 17.1336 0.176541C17.079 0.15106 17.0207 0.1365 16.9625 0.11648C16.8096 0.0655201 16.6531 0.0327602 16.4911 0.0236601C16.4529 0.0200201 16.4183 0 16.3801 0H3.64002C1.63255 0 0 1.63255 0 3.64002V32.7601C0 34.7676 1.63255 36.4002 3.64002 36.4002H25.4801C27.4876 36.4002 29.1201 34.7676 29.1201 32.7601V12.7401C29.1201 12.7018 29.1001 12.6673 29.0965 12.6272C29.0874 12.4652 29.0564 12.3087 29.0036 12.1558C28.9854 12.0976 28.9691 12.0412 28.9436 11.9866ZM22.9066 10.92H18.2001V6.21351L22.9066 10.92ZM3.64002 32.7601V3.64002H14.5601V12.7401C14.5601 13.7465 15.3736 14.5601 16.3801 14.5601H25.4801L25.4837 32.7601H3.64002Z" fill="#BCF0EC"/>
<path d="M7.27997 18.2001H21.84V21.8402H7.27997V18.2001ZM7.27997 25.4802H21.84V29.1202H7.27997V25.4802ZM7.27997 10.9201H10.92V14.5601H7.27997V10.9201Z" fill="#BCF0EC"/>
</svg>
