<svg width="18" height="18" viewBox="0 0 18 18" fill="none" xmlns="http://www.w3.org/2000/svg">
<path d="M13.5 6.30005H15.85C16.5404 6.30005 17.1 6.85969 17.1 7.55005V15.3C17.1 16.2942 16.2941 17.1 15.3 17.1C14.3059 17.1 13.5 16.2942 13.5 15.3V6.30005Z" fill="#C4E9F5"/>
<path fill-rule="evenodd" clip-rule="evenodd" d="M0 2.5C0 1.11929 1.11929 0 2.5 0H10.1C11.4807 0 12.6 1.11929 12.6 2.5L12.6 7.2L12.6 15.9128L12.6 16.2C12.6 17.1207 13.2913 17.88 14.1832 17.9871C14.1668 17.9953 14.1479 18 14.1271 18H2.5C1.11929 18 0 16.8807 0 15.5V2.5ZM2.7 5.55C2.28579 5.55 1.95 5.88579 1.95 6.3C1.95 6.71421 2.28579 7.05 2.7 7.05H9.9C10.3142 7.05 10.65 6.71421 10.65 6.3C10.65 5.88579 10.3142 5.55 9.9 5.55H2.7ZM1.95 9C1.95 8.58579 2.28579 8.25 2.7 8.25H9.9C10.3142 8.25 10.65 8.58579 10.65 9C10.65 9.41421 10.3142 9.75 9.9 9.75H2.7C2.28579 9.75 1.95 9.41421 1.95 9ZM2.7 10.95C2.28579 10.95 1.95 11.2858 1.95 11.7C1.95 12.1142 2.28579 12.45 2.7 12.45H9.9C10.3142 12.45 10.65 12.1142 10.65 11.7C10.65 11.2858 10.3142 10.95 9.9 10.95H2.7Z" fill="#C4E9F5"/>
</svg>
