<svg width="61" height="62" viewBox="0 0 61 62" fill="none" xmlns="http://www.w3.org/2000/svg">
<mask id="mask0_0_319" style="mask-type:alpha" maskUnits="userSpaceOnUse" x="0" y="0" width="61" height="62">
<circle cx="30.5" cy="31.2773" r="30.5" fill="#65C4DF"/>
</mask>
<g mask="url(#mask0_0_319)">
<circle cx="30.5" cy="31.2773" r="30.5" fill="#BCF0EC"/>
<ellipse cx="24.5" cy="25.2773" rx="13.0634" ry="17.2378" fill="#BCF0EC"/>
<ellipse cx="41.836" cy="10.2126" rx="14.5505" ry="18.7751" fill="#70F8FF"/>
<ellipse cx="1.80013" cy="0.834126" rx="14.1535" ry="15.6572" fill="#65C4DF"/>
<ellipse cx="4.34749" cy="37.9383" rx="15.0486" ry="14.5046" fill="#419BB5"/>
<ellipse cx="44.8462" cy="43.7791" rx="19.0365" ry="17.6906" fill="#5BC0DE"/>
<g filter="url(#filter0_b_0_319)">
<circle cx="30.5" cy="31.2773" r="30.5" fill="#CEEDF6" fill-opacity="0.3"/>
</g>
</g>
<path d="M28.6515 21.411L39.8117 27.8114V27.9038C40.4114 28.2509 40.9093 28.7495 41.2554 29.3498C41.6015 29.95 41.7837 30.6307 41.7837 31.3235C41.7837 32.0164 41.6015 32.6971 41.2554 33.2973C40.9093 33.8975 40.4114 34.3962 39.8117 34.7432L28.6515 41.1436C28.0509 41.4906 27.3696 41.6739 26.6759 41.675C25.628 41.675 24.6231 41.2588 23.8821 40.5178C23.1411 39.7768 22.7248 38.7718 22.7248 37.7239V24.8769C22.717 24.1796 22.8939 23.4927 23.2375 22.8859C23.5811 22.279 24.0791 21.774 24.6811 21.4219C25.2831 21.0699 25.9675 20.8835 26.6648 20.8815C27.3622 20.8796 28.0476 21.0623 28.6515 21.411Z" fill="#333333"/>
<defs>
<filter id="filter0_b_0_319" x="-19.6" y="-18.8227" width="100.2" height="100.2" filterUnits="userSpaceOnUse" color-interpolation-filters="sRGB">
<feFlood flood-opacity="0" result="BackgroundImageFix"/>
<feGaussianBlur in="BackgroundImageFix" stdDeviation="9.8"/>
<feComposite in2="SourceAlpha" operator="in" result="effect1_backgroundBlur_0_319"/>
<feBlend mode="normal" in="SourceGraphic" in2="effect1_backgroundBlur_0_319" result="shape"/>
</filter>
</defs>
</svg>
