<svg width="39" height="62" viewBox="0 0 39 62" fill="none" xmlns="http://www.w3.org/2000/svg">
<path d="M19.5 0C30.2523 0 39 8.69163 39 19.375H31.2C31.2 12.9657 25.9506 7.75 19.5 7.75C13.0494 7.75 7.8 12.9657 7.8 19.375C7.8 23.5174 9.5706 25.0519 13.5759 28.1131C15.0657 29.2524 16.7466 30.5389 18.3573 32.1354C23.4741 37.2155 23.4195 42.2259 23.4 42.625V50.375H15.6V42.5901C15.6 42.4971 15.5103 40.2612 12.8427 37.6146C11.5947 36.3746 10.1829 35.2974 8.8218 34.255C4.6878 31.093 0 27.5125 0 19.375C0 8.69163 8.7477 0 19.5 0ZM23.4 54.25H15.6V62H23.4V54.25Z" fill="#116278"/>
</svg>
