<svg width="23" height="20" viewBox="0 0 23 20" fill="none" xmlns="http://www.w3.org/2000/svg">
<path fill-rule="evenodd" clip-rule="evenodd" d="M22.9761 2.03418C23.1959 0.677704 21.8613 -0.393708 20.6165 0.139791L1.04957 8.52558C-0.314851 9.11024 -0.384764 11.1179 1.05055 11.7235C2.1125 12.1716 3.73775 12.8286 5.36776 13.3756C6.70478 13.8242 8.1623 14.2407 9.32992 14.3586C9.64959 14.7478 10.0519 15.1217 10.4606 15.4637C11.0865 15.9877 11.8403 16.5282 12.6182 17.0457C14.1762 18.0819 15.905 19.0734 17.0702 19.7176C18.4626 20.4874 20.1295 19.601 20.3799 18.0562L22.9761 2.03418ZM3.24403 10.1124L20.5494 2.69594L18.1262 17.6506C16.9836 17.0182 15.3366 16.0711 13.87 15.0958C13.1281 14.6022 12.4505 14.1135 11.9142 13.6647C11.7232 13.5048 11.5615 13.3592 11.4268 13.2289L15.9593 8.61538C16.4061 8.16057 16.4061 7.42311 15.9593 6.96831C15.5125 6.51347 14.788 6.51347 14.3411 6.96831L9.3771 12.0209C8.53786 11.9116 7.36794 11.5941 6.08433 11.1634C5.09648 10.8319 4.10324 10.4553 3.24403 10.1124Z" fill="#C4E9F5"/>
</svg>
