<svg width="24" height="24" viewBox="0 0 24 24" fill="none" xmlns="http://www.w3.org/2000/svg">
<path fill-rule="evenodd" clip-rule="evenodd" d="M3.04444 5H20.9556C21.5324 5 22 5.46761 22 6.04444V6.17778C22 6.75461 21.5324 7.22222 20.9556 7.22222H3.04444C2.46761 7.22222 2 6.75461 2 6.17778V6.04444C2 5.46761 2.46761 5 3.04444 5ZM4.22222 11.6667C4.22222 12.2803 3.72476 12.7778 3.11111 12.7778C2.49746 12.7778 2 12.2803 2 11.6667C2 11.053 2.49746 10.5556 3.11111 10.5556C3.72476 10.5556 4.22222 11.053 4.22222 11.6667ZM7.48889 10.5556H20.9556C21.5324 10.5556 22 11.0232 22 11.6V11.7333C22 12.3102 21.5324 12.7778 20.9556 12.7778H7.48889C6.91206 12.7778 6.44444 12.3102 6.44444 11.7333V11.6C6.44444 11.0232 6.91206 10.5556 7.48889 10.5556ZM20.9556 16.1111H3.04444C2.46761 16.1111 2 16.5787 2 17.1556V17.2889C2 17.8657 2.46761 18.3333 3.04444 18.3333H20.9556C21.5324 18.3333 22 17.8657 22 17.2889V17.1556C22 16.5787 21.5324 16.1111 20.9556 16.1111Z" fill="white"/>
</svg>
