<svg width="22" height="20" viewBox="0 0 22 20" fill="none" xmlns="http://www.w3.org/2000/svg">
<path fill-rule="evenodd" clip-rule="evenodd" d="M17.1567 3.51694C16.7479 2.91901 15.655 2.07985 13.8843 2.44119C12.8519 2.65189 12.2342 3.17191 11.8417 3.85606C11.4235 4.58478 11.2214 5.57657 11.2214 6.73115C11.2214 7.38085 10.703 7.90754 10.0635 7.90754C7.32383 7.90754 4.71636 7.08097 2.52212 4.84388C2.37982 5.64864 2.28053 6.60486 2.32762 7.59637C2.38829 8.87398 2.68899 10.1558 3.401 11.2534C4.10085 12.3324 5.2536 13.3207 7.17971 13.941C7.56376 14.0647 7.85693 14.3823 7.95377 14.7796C8.05063 15.1769 7.93725 15.5969 7.6544 15.8884C6.97013 16.5935 6.28192 17.1225 5.5748 17.5412C6.80306 17.6702 7.98615 17.6796 9.08335 17.5788C11.306 17.3746 13.0768 16.7282 14.1842 15.8152C16.5146 13.8938 17.7626 11.0307 17.5298 6.23364C17.4916 5.44423 18.2399 4.59431 18.6012 3.94889C18.056 4.05248 17.5095 4.03308 17.1567 3.51694ZM1.8454 1.15794C2.27284 1.10732 2.69264 1.30171 2.93545 1.66267C4.64379 4.20238 6.69567 5.25889 8.97242 5.49926C9.08416 4.50965 9.347 3.53186 9.84107 2.67099C10.5658 1.4079 11.7445 0.477998 13.4283 0.134384C15.755 -0.340427 17.5266 0.515668 18.5546 1.56412L20.6293 1.17006C21.0725 1.0859 21.5234 1.27072 21.7851 1.64374C22.0467 2.01677 22.0715 2.51017 21.8484 2.90829L19.8574 6.46358C20.039 11.5945 18.6356 15.1752 15.6435 17.6422C14.0563 18.9508 11.7851 19.693 9.292 19.9222C6.77945 20.1531 3.93933 19.8738 1.11601 19.0362C0.620683 18.8892 0.28084 18.427 0.28267 17.9028C0.284488 17.3785 0.627526 16.9187 1.12386 16.7753C2.54369 16.3651 3.62436 16.0104 4.60121 15.391C3.21352 14.6424 2.19103 13.6639 1.46736 12.5482C0.46153 10.9976 0.0885605 9.26891 0.014513 7.70978C-0.0595228 6.15081 0.162214 4.7069 0.39575 3.66477C0.528688 3.07154 0.683962 2.47554 0.897987 1.90621C1.05343 1.49587 1.41797 1.20858 1.8454 1.15794Z" fill="#C4E9F5"/>
</svg>
