<svg width="16" height="18" viewBox="0 0 16 18" fill="none" xmlns="http://www.w3.org/2000/svg">
<path d="M7.53333 17H2.86666C1.83573 17 0.999993 16.1046 1 15L1.00007 2.99999C1.00008 1.89543 1.83581 1 2.86674 1H11.2669C12.2979 1 13.1336 1.89543 13.1336 3.00001V7.00002M14.0667 15.5L15 16.5M4.26696 5.00001H9.86696M4.26696 8.00002H9.86696M4.26696 11H7.06696M14.5333 13.5C14.5333 14.8807 13.4887 16 12.2 16C10.9113 16 9.86667 14.8807 9.86667 13.5C9.86667 12.1193 10.9113 11 12.2 11C13.4887 11 14.5333 12.1193 14.5333 13.5Z" stroke="#116278" stroke-width="2" stroke-linecap="round" stroke-linejoin="round"/>
</svg>
